<?xml version="1.0" standalone="no"?><!DOCTYPE svg PUBLIC "-//W3C//DTD SVG 1.1//EN" "http://www.w3.org/Graphics/SVG/1.1/DTD/svg11.dtd"><svg t="1691119233553" class="icon" viewBox="0 0 1024 1024" version="1.1" xmlns="http://www.w3.org/2000/svg" p-id="7553" xmlns:xlink="http://www.w3.org/1999/xlink" width="32" height="32"><path d="M512 1024C229.216 1024 0 794.784 0 512S229.216 0 512 0s512 229.216 512 512-229.216 512-512 512z m69.344-510.528l175.52-175.52a48 48 0 0 0-67.904-67.904l-175.488 175.52L337.92 270.08a48 48 0 0 0-67.904 67.904l175.52 175.52L270.08 688.96a48 48 0 0 0 67.904 67.904l175.52-175.52 175.488 175.52a48 48 0 0 0 67.904-67.904l-175.52-175.488z" fill="#707070" p-id="7554"></path></svg>